<svg width="270" height="48" viewBox="0 0 270 48" fill="none" xmlns="http://www.w3.org/2000/svg">
<path d="M69.3163 35.3993H64.0123L73.4886 10.3677L73.497 10.3489C73.9774 9.12965 75.1557 8.26114 76.5395 8.23416H82.0576L92.3416 35.3993H87.032C85.6817 35.3644 84.5309 34.5302 84.0371 33.3517L83.028 30.5485H73.3261L72.4349 33.0231C72.4245 33.0464 72.4144 33.0712 72.4057 33.0983C71.9789 34.4087 70.7614 35.362 69.3163 35.3993ZM75.0723 25.5034H81.2815L78.1772 16.3835L75.0723 25.5034ZM117.955 35.3993H114.208C112.454 35.3483 111.039 33.9452 110.97 32.1959V13.667H101.268V32.0606C101.268 33.8725 99.8251 35.3469 98.0261 35.3993H94.2822V11.5754C94.2822 9.73064 95.7773 8.23503 97.6223 8.23503L97.6553 8.23416H117.955V35.3993ZM153.269 25.6973C153.269 28.4139 152.655 30.3866 151.426 31.6156C150.197 32.8444 148.224 33.4589 145.508 33.4589H140.851V33.4654C140.846 33.4654 140.851 33.4769 140.851 33.4819C140.843 34.9706 139.632 36.1752 138.141 36.1752H133.865V33.4589H129.209C126.492 33.4589 124.52 32.8444 123.291 31.6156C122.062 30.3866 121.447 28.4139 121.447 25.6973V17.9361C121.447 15.2193 122.062 13.2466 123.291 12.0178C124.52 10.7889 126.492 10.1743 129.209 10.1743H133.679C133.74 10.1766 133.803 10.1766 133.868 10.1743C133.873 10.1743 133.868 10.1628 133.868 10.1578C133.876 8.66911 135.086 7.46451 136.578 7.46451C136.656 7.46451 136.727 7.46225 136.791 7.45807H140.851V10.1743H145.508C148.224 10.1743 150.197 10.7889 151.426 12.0178C152.655 13.2466 153.269 15.2193 153.269 17.9361V25.6973ZM140.851 36.1583V36.1752H140.839L140.851 36.1583ZM133.865 7.4847V7.45807H133.884L133.865 7.4847ZM146.284 17.9361C146.284 16.3835 145.508 15.6076 143.956 15.6076H140.463V28.0258H143.956C145.508 28.0258 146.284 27.2497 146.284 25.6973V17.9361ZM128.433 25.6973C128.433 27.2497 129.209 28.0258 130.761 28.0258H134.254V15.6076H130.761C129.209 15.6076 128.433 16.3835 128.433 17.9361V25.6973ZM172.049 35.3993H168.404V11.4892C168.45 9.68435 169.927 8.23503 171.743 8.23503L171.776 8.23416H189.554V10.3269C189.554 12.1717 188.059 13.667 186.214 13.667H175.389V32.0592C175.389 33.904 173.894 35.3993 172.049 35.3993ZM192.271 8.23416H208.57C211.286 8.23416 213.259 8.84873 214.488 10.0775C215.717 11.3065 216.331 13.2792 216.331 15.9954V19.8762C216.331 22.5928 215.717 24.5657 214.488 25.7945C213.259 27.0232 211.286 27.638 208.57 27.638H199.256V32.0592C199.256 33.904 197.76 35.3993 195.915 35.3993H192.271V8.23416ZM209.346 15.9954C209.346 14.4434 208.57 13.667 207.017 13.667H199.256V22.2047H207.017C208.57 22.2047 209.346 21.4286 209.346 19.8762V15.9954ZM225.654 35.4006C224.361 35.4006 222.971 35.3996 221.57 35.3993V33.5007C221.57 31.6558 223.065 30.1602 224.91 30.1602H225.062C225.813 30.1602 226.33 29.8627 226.615 29.2678C226.744 29.0088 226.809 28.7307 226.809 28.4332C226.809 28.1358 226.744 27.8707 226.615 27.638L215.943 8.23416H221.665C222.952 8.27576 224.075 9.04123 224.627 10.0747C224.64 10.0986 224.654 10.1198 224.67 10.139L230.689 22.0108L235.697 10.1586C236.221 9.03984 237.348 8.25887 238.661 8.23416H244.272L234.376 29.5781C232.384 34.0765 230.52 35.4006 225.654 35.4006ZM269.497 35.3993H265.75C263.996 35.3483 262.581 33.9452 262.511 32.1959V13.667H252.809V32.0606C252.809 33.8725 251.367 35.3469 249.568 35.3993H245.824V11.5754C245.824 9.73064 247.319 8.23503 249.164 8.23503L249.197 8.23416H269.497V35.3993Z" fill="white"/>
<path fill-rule="evenodd" clip-rule="evenodd" d="M35.9426 45.1556C26.0872 50.4321 14.1971 48.1225 6.9679 40.2535C13.4064 41.6529 20.3555 40.859 26.6192 37.5052C28.9317 36.2672 31.0056 34.758 32.8234 33.0382C33.3924 32.4574 33.9657 31.8415 34.5429 31.1832L30.2278 28.9176C36.7429 26.6918 43.0259 23.7506 48.2398 19.9028C48.2398 19.9028 51.6764 29.7967 46.124 39.6504L44.1104 38.0443L43.6937 38.564C41.6753 41.2129 39.0699 43.4813 35.9426 45.1556Z" fill="url(#paint0_linear)"/>
<path fill-rule="evenodd" clip-rule="evenodd" d="M13.3486 2.84435C23.2042 -2.43216 35.0943 -0.122515 42.3233 7.74648C35.8848 6.34711 28.9359 7.14096 22.672 10.4947C20.3595 11.7328 18.2855 13.2419 16.4678 14.9617C15.899 15.5425 15.3255 16.1585 14.7485 16.8168L19.0634 19.0824C12.5483 21.3081 6.26528 24.2494 1.0516 28.0971C1.0516 28.0971 -2.3852 18.2033 3.16735 8.34956L5.18077 9.9557L5.59744 9.43599C7.61608 6.78711 10.2213 4.51871 13.3486 2.84435Z" fill="url(#paint1_linear)"/>
<defs>
<linearGradient id="paint0_linear" x1="6.9679" y1="40.2537" x2="39.218" y2="25.2638" gradientUnits="userSpaceOnUse">
<stop stop-color="#0C6DA9"/>
<stop offset="1" stop-color="#00A0E3"/>
</linearGradient>
<linearGradient id="paint1_linear" x1="9.71983" y1="22.9078" x2="42.3235" y2="7.74648" gradientUnits="userSpaceOnUse">
<stop stop-color="#FECC00"/>
<stop offset="1" stop-color="#EE771C"/>
</linearGradient>
</defs>
</svg>
